# xmcd
#
# Track frame offsets:
#	150
#	13631
#	27994
#	42927
#	57572
#	74040
#	89601
#	104157
#	118097
#	134426
#	147026
#	166125
#	181850
#	200728
#	216776
#	234787
#	248208
#	269274
#	282595
#
# Disc length: 3979 seconds
#
# Revision: 1
# Processed by: cddbd v1.5.2PL0 Copyright (c) Steve Scherf et al.
# Submitted via: audiograbber 1.82.02
#
DISCID=270f8913
DTITLE=Various Artist - Country Radio - May 2018
DYEAR=2018
DGENRE=Country
TTITLE0=Jess Taylor - Crooked Roots
TTITLE1=Cody Joe Hodges - Roll That Way
TTITLE2=Cole Swindell - Break Up In The End
TTITLE3=Sam Shupak - Something Blue
TTITLE4=Muscadine Bloodline - Movin' On
TTITLE5=Travis Denning - David Ashley Parker From Powder Springs
TTITLE6=Risa Binder - You Came Along
TTITLE7=Jake Owen - I Was Jack (You Were Diane)
TTITLE8=Swon Brothers - What Ever Happened
TTITLE9=Jessica Mack - Still Out There
TTITLE10=Bailey Coats - Deep Within
TTITLE11=Smithfield - Hey Whiskey
TTITLE12=Tennessee Werewolves - Amy's Gone
TTITLE13=Lee Gantt - Ruined This Town
TTITLE14=Brailey Lenderman - Remember All The Nights
TTITLE15=Craig Campbell - See You Try
TTITLE16=MercyMe - I Can Only Imagine (The Movie Session)
TTITLE17=Shane Owens - Lie
TTITLE18=Keith Urban (Ft. Julia Michaels) - Coming Home
EXTD=
EXTT0=
EXTT1=
EXTT2=
EXTT3=
EXTT4=
EXTT5=
EXTT6=
EXTT7=
EXTT8=
EXTT9=
EXTT10=
EXTT11=
EXTT12=
EXTT13=
EXTT14=
EXTT15=
EXTT16=
EXTT17=
EXTT18=
PLAYORDER=
